<?xml version="1.0" standalone="no"?>
<!DOCTYPE svg PUBLIC "-//W3C//DTD SVG 20010904//EN"
 "http://www.w3.org/TR/2001/REC-SVG-20010904/DTD/svg10.dtd">
<svg version="1.0" xmlns="http://www.w3.org/2000/svg"
 width="512.000000pt" height="512.000000pt" viewBox="0 0 512.000000 512.000000"
 preserveAspectRatio="xMidYMid meet">
<metadata>
Created by potrace 1.11, written by Peter Selinger 2001-2013
</metadata>
<g transform="translate(0.000000,512.000000) scale(0.100000,-0.100000)"
fill="#000000" stroke="none">
<path d="M2472 4203 c-96 -40 -152 -128 -148 -233 3 -72 21 -116 67 -161 25
-25 109 -75 117 -70 13 8 17 -11 16 -80 0 -60 -4 -83 -15 -89 -8 -4 -45 -10
-84 -13 -82 -7 -89 -9 -192 -38 -307 -86 -584 -319 -724 -609 -22 -46 -90
-225 -88 -233 0 -1 -2 -13 -5 -27 -3 -14 -9 -41 -13 -60 -3 -19 -8 -344 -10
-723 l-4 -687 1171 0 1170 0 0 653 c0 707 -3 749 -56 919 -58 184 -154 339
-298 481 -191 189 -483 321 -733 330 -48 2 -47 -1 -44 116 2 62 6 71 30 71 30
0 107 56 131 95 79 128 38 282 -95 352 -44 24 -142 27 -193 6z m222 -1334
c197 -53 335 -250 320 -454 -14 -180 -123 -320 -298 -383 -49 -17 -78 -21
-156 -18 -84 2 -104 6 -161 34 -175 85 -272 249 -255 431 24 278 284 462 550
390z m322 -1215 c-8 -47 -20 -68 -50 -88 -54 -35 -125 -15 -156 43 -13 24 -19
30 -20 18 0 -11 -14 -32 -31 -48 -24 -23 -40 -29 -74 -29 -34 0 -50 6 -74 29
-17 16 -31 37 -31 48 0 12 -6 7 -17 -15 -33 -67 -123 -84 -174 -33 -16 16 -29
38 -29 48 -1 13 -5 10 -17 -12 -25 -46 -41 -57 -88 -63 -69 -7 -112 29 -122
105 l-5 33 447 0 446 0 -5 -36z"/>
</g>
</svg>
