<?xml version="1.0" standalone="no"?>
<!DOCTYPE svg PUBLIC "-//W3C//DTD SVG 20010904//EN"
 "http://www.w3.org/TR/2001/REC-SVG-20010904/DTD/svg10.dtd">
<svg version="1.0" xmlns="http://www.w3.org/2000/svg"
 width="2500.000000pt" height="2500.000000pt" viewBox="0 0 2500.000000 2500.000000"
 preserveAspectRatio="xMidYMid meet">
<metadata>
Created by potrace 1.11, written by Peter Selinger 2001-2013
</metadata>
<g transform="translate(0.000000,2500.000000) scale(0.100000,-0.100000)"
fill="#000000" stroke="none">
<path d="M12340 20599 c-19 -4 -51 -10 -70 -13 -68 -10 -224 -67 -310 -112
-441 -232 -691 -726 -616 -1214 74 -483 428 -863 906 -975 l76 -18 0 -423 c0
-233 -3 -425 -6 -425 -3 -1 -26 -2 -51 -4 -147 -8 -268 -16 -294 -19 -16 -3
-63 -7 -103 -11 -41 -3 -82 -8 -91 -10 -10 -2 -42 -6 -71 -10 -29 -4 -60 -8
-69 -10 -9 -1 -36 -6 -61 -10 -36 -5 -286 -54 -360 -70 -106 -23 -333 -87
-485 -136 -508 -165 -989 -399 -1430 -698 -114 -77 -393 -287 -455 -341 -19
-17 -60 -52 -90 -78 -193 -167 -429 -404 -591 -592 -500 -583 -879 -1263
-1111 -1990 -63 -200 -131 -461 -153 -590 -3 -19 -8 -42 -10 -50 -5 -17 -10
-47 -25 -135 -5 -33 -12 -71 -14 -85 -3 -14 -7 -47 -11 -75 -3 -27 -8 -63 -10
-80 -11 -71 -15 -105 -20 -185 -4 -47 -9 -101 -13 -120 -3 -19 -7 -1456 -9
-3192 l-4 -3158 5716 0 5716 0 -4 3158 c-2 1736 -6 3173 -9 3192 -4 19 -9 73
-13 119 -4 46 -8 91 -10 100 -1 9 -6 48 -10 86 -4 39 -9 79 -11 90 -2 10 -6
37 -9 60 -3 22 -8 51 -10 65 -3 14 -7 39 -10 55 -5 32 -52 266 -60 300 -3 11
-7 29 -9 40 -19 85 -65 249 -112 395 -68 216 -106 318 -225 600 -38 91 -211
429 -274 535 -58 100 -79 133 -170 275 -51 79 -223 321 -234 330 -4 3 -18 21
-31 40 -14 19 -34 46 -46 60 -12 14 -50 59 -84 100 -99 121 -205 236 -350 380
-153 154 -282 271 -425 385 -27 22 -52 43 -55 46 -34 39 -537 389 -560 389 -5
0 -10 4 -10 9 0 5 -8 11 -17 14 -10 4 -36 17 -58 31 -22 14 -56 34 -75 45 -19
11 -64 36 -100 55 -176 98 -481 239 -675 312 -49 19 -99 38 -110 43 -108 47
-575 180 -775 220 -90 18 -101 20 -195 37 -154 26 -248 39 -355 49 -30 3 -68
7 -85 10 -33 4 -198 15 -290 19 l-60 3 -3 426 -2 426 57 11 c267 55 536 224
695 437 23 32 45 60 48 63 28 27 112 208 143 306 38 121 51 206 51 349 0 146
-15 235 -61 375 -26 79 -95 224 -119 251 -8 8 -14 20 -14 26 0 6 -3 13 -7 15
-5 2 -28 29 -52 61 -95 125 -280 271 -425 337 -164 74 -322 108 -501 107 -71
0 -146 -4 -165 -8z m451 -6514 c77 -6 115 -11 155 -20 12 -3 39 -7 60 -11 21
-3 81 -17 132 -30 604 -160 1100 -566 1379 -1130 68 -138 136 -323 158 -429 2
-5 10 -44 18 -85 31 -144 41 -247 41 -420 0 -136 -8 -263 -19 -320 -3 -14 -10
-52 -15 -85 -62 -349 -237 -712 -479 -995 -103 -121 -286 -289 -376 -346 -16
-10 -32 -21 -35 -25 -3 -3 -30 -21 -61 -40 -30 -19 -64 -40 -75 -46 -130 -84
-445 -209 -594 -236 -14 -3 -61 -12 -105 -21 -131 -25 -162 -28 -345 -31 -267
-3 -464 25 -705 103 -138 45 -303 120 -421 192 -36 22 -70 40 -74 40 -5 0 -10
4 -12 8 -1 5 -25 23 -53 42 -215 145 -431 373 -589 620 -123 193 -246 501
-282 710 -2 14 -9 48 -14 75 -24 125 -34 424 -19 550 17 142 20 162 44 270 60
266 174 525 334 755 305 439 796 763 1321 870 118 24 139 27 265 36 50 4 91 7
92 8 5 4 204 -3 274 -9z m1943 -5937 c-3 -143 -13 -197 -55 -284 -33 -67 -46
-86 -112 -152 -38 -39 -147 -110 -180 -116 -6 -2 -19 -6 -27 -9 -62 -24 -193
-30 -285 -13 -67 13 -180 73 -238 126 -91 84 -156 199 -172 311 -8 53 -15 64
-15 23 0 -16 -5 -46 -10 -66 -6 -21 -10 -39 -10 -40 1 -2 -12 -28 -27 -58 -78
-152 -208 -258 -363 -294 -82 -19 -219 -13 -294 13 -191 67 -320 216 -361 416
-9 41 -13 50 -14 30 -4 -98 -65 -220 -155 -311 -117 -117 -239 -165 -404 -159
-224 9 -407 145 -485 360 -28 78 -27 74 -28 113 0 15 -7 -4 -15 -42 -40 -205
-202 -373 -402 -420 -57 -13 -196 -15 -247 -3 -46 11 -129 47 -175 77 -113 73
-220 237 -235 363 -8 66 -12 246 -6 253 2 2 975 4 2161 4 l2157 0 -3 -122z"/>
</g>
</svg>
